<svg width="7" height="7" viewBox="0 0 7 7" fill="none" xmlns="http://www.w3.org/2000/svg">
<path d="M1.25602 6.50037C1.07269 6.50037 0.9158 6.44167 0.785355 6.32427C0.654911 6.20687 0.589578 6.06557 0.589355 5.90037V1.70037C0.589355 1.53537 0.654689 1.39417 0.785355 1.27677C0.916022 1.15937 1.07291 1.10057 1.25602 1.10037H1.58936V0.500366H2.25602V1.10037H4.92269V0.500366H5.58935V1.10037H5.92269C6.10602 1.10037 6.26302 1.15917 6.39369 1.27677C6.52436 1.39437 6.58958 1.53557 6.58935 1.70037V5.90037C6.58935 6.06537 6.52413 6.20667 6.39369 6.32427C6.26324 6.44187 6.10624 6.50057 5.92269 6.50037H1.25602ZM1.25602 5.90037H5.92269V2.90037H1.25602V5.90037ZM1.25602 2.30037H5.92269V1.70037H1.25602V2.30037ZM3.58936 4.10037C3.49491 4.10037 3.4158 4.07157 3.35202 4.01397C3.28824 3.95637 3.25624 3.88517 3.25602 3.80037C3.2558 3.71557 3.2878 3.64437 3.35202 3.58677C3.41624 3.52917 3.49536 3.50037 3.58936 3.50037C3.68336 3.50037 3.76258 3.52917 3.82702 3.58677C3.89147 3.64437 3.92336 3.71557 3.92269 3.80037C3.92202 3.88517 3.89002 3.95647 3.82669 4.01427C3.76336 4.07207 3.68424 4.10077 3.58936 4.10037ZM2.25602 4.10037C2.16158 4.10037 2.08247 4.07157 2.01869 4.01397C1.95491 3.95637 1.92291 3.88517 1.92269 3.80037C1.92247 3.71557 1.95447 3.64437 2.01869 3.58677C2.08291 3.52917 2.16202 3.50037 2.25602 3.50037C2.35002 3.50037 2.42924 3.52917 2.49369 3.58677C2.55813 3.64437 2.59002 3.71557 2.58936 3.80037C2.58869 3.88517 2.55669 3.95647 2.49336 4.01427C2.43002 4.07207 2.35091 4.10077 2.25602 4.10037ZM4.92269 4.10037C4.82824 4.10037 4.74913 4.07157 4.68536 4.01397C4.62158 3.95637 4.58958 3.88517 4.58936 3.80037C4.58913 3.71557 4.62113 3.64437 4.68536 3.58677C4.74958 3.52917 4.82869 3.50037 4.92269 3.50037C5.01669 3.50037 5.09591 3.52917 5.16036 3.58677C5.2248 3.64437 5.25669 3.71557 5.25602 3.80037C5.25536 3.88517 5.22336 3.95647 5.16002 4.01427C5.09669 4.07207 5.01758 4.10077 4.92269 4.10037ZM3.58936 5.30037C3.49491 5.30037 3.4158 5.27157 3.35202 5.21397C3.28824 5.15637 3.25624 5.08517 3.25602 5.00037C3.2558 4.91557 3.2878 4.84437 3.35202 4.78677C3.41624 4.72917 3.49536 4.70037 3.58936 4.70037C3.68336 4.70037 3.76258 4.72917 3.82702 4.78677C3.89147 4.84437 3.92336 4.91557 3.92269 5.00037C3.92202 5.08517 3.89002 5.15647 3.82669 5.21427C3.76336 5.27207 3.68424 5.30077 3.58936 5.30037ZM2.25602 5.30037C2.16158 5.30037 2.08247 5.27157 2.01869 5.21397C1.95491 5.15637 1.92291 5.08517 1.92269 5.00037C1.92247 4.91557 1.95447 4.84437 2.01869 4.78677C2.08291 4.72917 2.16202 4.70037 2.25602 4.70037C2.35002 4.70037 2.42924 4.72917 2.49369 4.78677C2.55813 4.84437 2.59002 4.91557 2.58936 5.00037C2.58869 5.08517 2.55669 5.15647 2.49336 5.21427C2.43002 5.27207 2.35091 5.30077 2.25602 5.30037ZM4.92269 5.30037C4.82824 5.30037 4.74913 5.27157 4.68536 5.21397C4.62158 5.15637 4.58958 5.08517 4.58936 5.00037C4.58913 4.91557 4.62113 4.84437 4.68536 4.78677C4.74958 4.72917 4.82869 4.70037 4.92269 4.70037C5.01669 4.70037 5.09591 4.72917 5.16036 4.78677C5.2248 4.84437 5.25669 4.91557 5.25602 5.00037C5.25536 5.08517 5.22336 5.15647 5.16002 5.21427C5.09669 5.27207 5.01758 5.30077 4.92269 5.30037Z" fill="#333333"/>
</svg>
