<svg width="7" height="7" viewBox="0 0 7 7" fill="none" xmlns="http://www.w3.org/2000/svg">
<path d="M4.26331 4.67571C3.73915 5.09446 3.07455 5.29662 2.406 5.24067C1.73745 5.18473 1.1157 4.87491 0.668433 4.37487C0.221169 3.87482 -0.0176516 3.22249 0.00101754 2.55187C0.0196867 1.88124 0.294429 1.24321 0.768819 0.768819C1.24321 0.294429 1.88124 0.0196867 2.55187 0.00101754C3.22249 -0.0176516 3.87482 0.221169 4.37487 0.668433C4.87491 1.1157 5.18473 1.73745 5.24067 2.406C5.29662 3.07455 5.09446 3.73915 4.67571 4.26331L6.91447 6.50148C6.96923 6.55625 7 6.63053 7 6.70797C7 6.78542 6.96923 6.8597 6.91447 6.91447C6.8597 6.96923 6.78542 7 6.70797 7C6.63053 7 6.55625 6.96923 6.50148 6.91447L4.26331 4.67571ZM4.66638 2.62478C4.66638 2.35668 4.61357 2.0912 4.51097 1.8435C4.40837 1.5958 4.25799 1.37074 4.06841 1.18116C3.87883 0.991578 3.65377 0.841195 3.40607 0.738595C3.15837 0.635995 2.89289 0.583188 2.62478 0.583188C2.35668 0.583188 2.0912 0.635995 1.8435 0.738595C1.5958 0.841195 1.37074 0.991578 1.18116 1.18116C0.991578 1.37074 0.841195 1.5958 0.738595 1.8435C0.635995 2.0912 0.583188 2.35668 0.583188 2.62478C0.583188 3.16625 0.798284 3.68554 1.18116 4.06841C1.56403 4.45128 2.08332 4.66638 2.62478 4.66638C3.16625 4.66638 3.68554 4.45128 4.06841 4.06841C4.45128 3.68554 4.66638 3.16625 4.66638 2.62478Z" fill="#333333"/>
</svg>
