<svg width="8" height="8" viewBox="0 0 8 8" fill="none" xmlns="http://www.w3.org/2000/svg">
<path d="M7.05836 4.39167C7.07549 4.26667 7.08406 4.1375 7.08406 4C7.08406 3.86667 7.07549 3.73333 7.05407 3.60833L7.92361 2.95C7.96108 2.91996 7.98668 2.87821 7.99605 2.83186C8.00542 2.78552 7.99799 2.73744 7.97501 2.69583L7.15259 1.3125C7.12838 1.27065 7.08972 1.23849 7.04346 1.22171C6.99721 1.20494 6.94634 1.20462 6.89987 1.22083L5.87613 1.62083C5.66196 1.4625 5.43494 1.32917 5.18222 1.22917L5.02802 0.170834C5.02043 0.123139 4.99551 0.0796708 4.95779 0.0483246C4.92006 0.0169784 4.87203 -0.000167294 4.82242 1.23058e-06H3.17758C3.07478 1.23058e-06 2.9934 0.0708345 2.97626 0.170834L2.82206 1.22917C2.56934 1.32917 2.33803 1.46667 2.12815 1.62083L1.10441 1.22083C1.01018 1.1875 0.903091 1.22083 0.85169 1.3125L0.0335576 2.69583C-0.0178434 2.78333 -0.000709791 2.89167 0.0849585 2.95L0.954492 3.60833C0.933075 3.73333 0.915941 3.87083 0.915941 4C0.915941 4.12917 0.924508 4.26667 0.945925 4.39167L0.0763917 5.05C0.0389221 5.08004 0.01332 5.12179 0.00394738 5.16814C-0.00542522 5.21448 0.00201161 5.26256 0.0249908 5.30417L0.847406 6.6875C0.898807 6.77917 1.00589 6.80833 1.10013 6.77917L2.12386 6.37917C2.33803 6.5375 2.56506 6.67083 2.81778 6.77083L2.97198 7.82917C2.9934 7.92917 3.07478 8 3.17758 8H4.82242C4.92522 8 5.01089 7.92917 5.02374 7.82917L5.17794 6.77083C5.43066 6.67083 5.66196 6.5375 5.87185 6.37917L6.89559 6.77917C6.98982 6.8125 7.09691 6.77917 7.14831 6.6875L7.97073 5.30417C8.02213 5.2125 8.00071 5.10833 7.91932 5.05L7.05836 4.39167ZM4 5.5C3.15188 5.5 2.45797 4.825 2.45797 4C2.45797 3.175 3.15188 2.5 4 2.5C4.84812 2.5 5.54203 3.175 5.54203 4C5.54203 4.825 4.84812 5.5 4 5.5Z" fill="black"/>
</svg>
