<svg width="7" height="5" viewBox="0 0 7 5" fill="none" xmlns="http://www.w3.org/2000/svg">
<path d="M2.03479 0.316861C2.05222 0.299645 2.06605 0.279207 2.07548 0.256713C2.08491 0.23422 2.08977 0.210111 2.08977 0.185764C2.08977 0.161418 2.08491 0.137309 2.07548 0.114816C2.06605 0.092322 2.05222 0.0718838 2.03479 0.054668C2.01735 0.0374522 1.99666 0.0237959 1.97388 0.0144788C1.95111 0.00516169 1.92669 0.000366211 1.90204 0.000366211C1.87739 0.000366211 1.85298 0.00516169 1.8302 0.0144788C1.80742 0.0237959 1.78673 0.0374522 1.7693 0.054668L1.15207 0.664599L0.90983 0.424997C0.874624 0.390228 0.826874 0.370695 0.777085 0.370695C0.727296 0.370695 0.679546 0.390228 0.64434 0.424997C0.609134 0.459765 0.589355 0.506922 0.589355 0.556093C0.589355 0.58044 0.594211 0.604548 0.603646 0.627042C0.61308 0.649535 0.626908 0.669973 0.64434 0.687189L1.01933 1.05752C1.03674 1.07476 1.05743 1.08844 1.08021 1.09778C1.10299 1.10711 1.12741 1.11192 1.15207 1.11192C1.17673 1.11192 1.20115 1.10711 1.22393 1.09778C1.24671 1.08844 1.2674 1.07476 1.28481 1.05752L2.03479 0.316861ZM3.027 0.556093C2.97727 0.556093 2.92958 0.575601 2.89442 0.610326C2.85926 0.645051 2.8395 0.692148 2.8395 0.741257C2.8395 0.790366 2.85926 0.837463 2.89442 0.872188C2.92958 0.906913 2.97727 0.926421 3.027 0.926421H6.40186C6.45159 0.926421 6.49928 0.906913 6.53444 0.872188C6.5696 0.837463 6.58936 0.790366 6.58936 0.741257C6.58936 0.692148 6.5696 0.645051 6.53444 0.610326C6.49928 0.575601 6.45159 0.556093 6.40186 0.556093H3.027ZM3.027 2.40774C2.97727 2.40774 2.92958 2.42724 2.89442 2.46197C2.85926 2.49669 2.8395 2.54379 2.8395 2.5929C2.8395 2.64201 2.85926 2.68911 2.89442 2.72383C2.92958 2.75856 2.97727 2.77806 3.027 2.77806H6.40186C6.45159 2.77806 6.49928 2.75856 6.53444 2.72383C6.5696 2.68911 6.58936 2.64201 6.58936 2.5929C6.58936 2.54379 6.5696 2.49669 6.53444 2.46197C6.49928 2.42724 6.45159 2.40774 6.40186 2.40774H3.027ZM2.8395 4.44454C2.8395 4.39543 2.85926 4.34834 2.89442 4.31361C2.92958 4.27889 2.97727 4.25938 3.027 4.25938H6.40186C6.45159 4.25938 6.49928 4.27889 6.53444 4.31361C6.5696 4.34834 6.58936 4.39543 6.58936 4.44454C6.58936 4.49365 6.5696 4.54075 6.53444 4.57547C6.49928 4.6102 6.45159 4.62971 6.40186 4.62971H3.027C2.97727 4.62971 2.92958 4.6102 2.89442 4.57547C2.85926 4.54075 2.8395 4.49365 2.8395 4.44454ZM2.03479 2.35367C2.06999 2.3189 2.08977 2.27174 2.08977 2.22257C2.08977 2.1734 2.06999 2.12624 2.03479 2.09147C1.99958 2.05671 1.95183 2.03717 1.90204 2.03717C1.85225 2.03717 1.8045 2.05671 1.7693 2.09147L1.15207 2.70141L0.90983 2.4618C0.874624 2.42703 0.826874 2.4075 0.777085 2.4075C0.727296 2.4075 0.679546 2.42703 0.64434 2.4618C0.609134 2.49657 0.589355 2.54373 0.589355 2.5929C0.589355 2.64207 0.609134 2.68923 0.64434 2.724L1.01933 3.09432C1.03674 3.11157 1.05743 3.12525 1.08021 3.13458C1.10299 3.14392 1.12741 3.14872 1.15207 3.14872C1.17673 3.14872 1.20115 3.14392 1.22393 3.13458C1.24671 3.12525 1.2674 3.11157 1.28481 3.09432L2.03479 2.35367ZM2.03479 3.94312C2.05225 3.96032 2.0661 3.98075 2.07555 4.00325C2.085 4.02574 2.08987 4.04986 2.08987 4.07421C2.08987 4.09857 2.085 4.12269 2.07555 4.14518C2.0661 4.16768 2.05225 4.18811 2.03479 4.20531L1.28481 4.94597C1.2674 4.96321 1.24671 4.97689 1.22393 4.98623C1.20115 4.99556 1.17673 5.00037 1.15207 5.00037C1.12741 5.00037 1.10299 4.99556 1.08021 4.98623C1.05743 4.97689 1.03674 4.96321 1.01933 4.94597L0.64434 4.57564C0.609134 4.54087 0.589355 4.49371 0.589355 4.44454C0.589355 4.39537 0.609134 4.34821 0.64434 4.31345C0.679546 4.27868 0.727296 4.25914 0.777085 4.25914C0.826874 4.25914 0.874624 4.27868 0.90983 4.31345L1.15207 4.55305L1.7693 3.94312C1.78671 3.92587 1.8074 3.91219 1.83018 3.90286C1.85296 3.89352 1.87738 3.88872 1.90204 3.88872C1.9267 3.88872 1.95112 3.89352 1.9739 3.90286C1.99668 3.91219 2.01737 3.92587 2.03479 3.94312Z" fill="#333333"/>
</svg>
