<svg xmlns="http://www.w3.org/2000/svg" version="1.1" xmlns:xlink="http://www.w3.org/1999/xlink" width="1000" height="1000"><g clip-path="url(#SvgjsClipPath1202)"><rect width="1000" height="1000" fill="#ffffff"></rect><g transform="matrix(26.923076923076923,0,0,26.923076923076923,150,311.53846153846155)"><svg xmlns="http://www.w3.org/2000/svg" version="1.1" xmlns:xlink="http://www.w3.org/1999/xlink" width="26" height="14"><svg width="26" height="14" viewBox="0 0 26 14" fill="none" xmlns="http://www.w3.org/2000/svg">
<path d="M0 9.24021H3.21673C3.46554 10.4159 4.30082 11.0221 5.74035 11.0221C7.07329 11.0221 7.92634 10.4893 7.92634 9.51571C7.92634 8.76255 7.26878 8.26658 5.97139 7.99102L3.64326 7.56852C1.38622 7.09086 0.17772 5.80494 0.17772 4.07817C0.17772 1.5982 2.2215 0 5.6515 0C8.97488 0 10.8587 1.43287 11.0364 3.93121H7.80194C7.62422 2.81063 6.86002 2.25952 5.42046 2.25952C4.14088 2.25952 3.35891 2.79226 3.35891 3.58218C3.35891 4.26187 4.01647 4.70275 5.31383 4.97832L7.5709 5.38245C10.059 5.91521 11.3208 7.09086 11.3208 8.96464C11.3208 11.5916 9.06374 13.2448 5.58041 13.2448C2.11487 13.2448 0.248808 11.9222 0 9.24021Z" fill="#333333"></path>
<path d="M23.7378 1.85539C24.8929 3.06781 25.4794 4.666 25.4794 6.68671C25.4794 8.70742 24.8929 10.3056 23.7378 11.4997C22.6004 12.6938 21.072 13.3 19.1525 13.3C17.2332 13.3 15.7048 12.6938 14.5674 11.4997C13.43 10.3056 12.8435 8.70742 12.8435 6.68671C12.8435 4.666 13.43 3.06781 14.5674 1.85539C15.7226 0.642957 17.2509 0.0367432 19.1703 0.0367432C21.072 0.0551098 22.6004 0.642957 23.7378 1.85539ZM22.7248 2.86574C21.8539 1.92886 20.681 1.46962 19.1881 1.46962C17.6952 1.46962 16.5045 1.92886 15.6337 2.86574C14.7629 3.80262 14.3363 5.07013 14.3363 6.68671C14.3363 8.30329 14.7629 9.58921 15.6159 10.4894C16.4867 11.4078 17.6775 11.8671 19.1703 11.8671C20.6632 11.8671 21.8539 11.4078 22.7248 10.4894C23.5956 9.55248 24.0221 8.28493 24.0221 6.68671C24.0221 5.07013 23.5778 3.80262 22.7248 2.86574ZM15.7048 6.68671C15.7048 4.35373 16.9488 2.93922 19.1881 2.93922C21.1608 2.93922 22.4049 4.02306 22.5293 5.87845H20.4855C20.3611 4.97829 19.899 4.53743 19.1703 4.53743C18.1929 4.53743 17.713 5.25386 17.713 6.68671C17.713 8.10126 18.1929 8.81769 19.1703 8.81769C19.9168 8.81769 20.3611 8.37676 20.4855 7.49503H22.5293C22.4049 9.35038 21.1964 10.4342 19.1881 10.4342C16.9488 10.4158 15.7048 9.00135 15.7048 6.68671Z" fill="#333333"></path>
</svg></svg></g></g><defs><clipPath id="SvgjsClipPath1202"><rect width="1000" height="1000" x="0" y="0" rx="300" ry="300"></rect></clipPath></defs></svg>