<svg width="93" height="15" viewBox="0 0 93 15" fill="none" xmlns="http://www.w3.org/2000/svg">
<path d="M0 10.1402H3.21673C3.46554 11.3159 4.30082 11.9221 5.74035 11.9221C7.07329 11.9221 7.92634 11.3893 7.92634 10.4157C7.92634 9.66257 7.26878 9.1666 5.97139 8.89104L3.64326 8.46854C1.38622 7.99088 0.17772 6.70496 0.17772 4.97819C0.17772 2.49822 2.2215 0.900019 5.65149 0.900019C8.97488 0.900019 10.8587 2.33289 11.0364 4.83123H7.80194C7.62422 3.71065 6.86002 3.15954 5.42046 3.15954C4.14088 3.15954 3.35891 3.69228 3.35891 4.4822C3.35891 5.16189 4.01647 5.60277 5.31383 5.87834L7.5709 6.28247C10.059 6.81523 11.3208 7.99088 11.3208 9.86466C11.3208 12.4916 9.06374 14.1449 5.58041 14.1449C2.11487 14.1449 0.248808 12.8223 0 10.1402Z" fill="#FF748D"/>
<path d="M23.7378 2.75543C24.893 3.96785 25.4795 5.56604 25.4795 7.58675C25.4795 9.60747 24.893 11.2057 23.7378 12.3998C22.6004 13.5938 21.072 14.2 19.1526 14.2C17.2332 14.2 15.7048 13.5938 14.5674 12.3998C13.43 11.2057 12.8436 9.60747 12.8436 7.58675C12.8436 5.56604 13.43 3.96785 14.5674 2.75543C15.7226 1.543 17.251 0.936784 19.1704 0.936784C21.072 0.955151 22.6004 1.543 23.7378 2.75543ZM22.7248 3.76578C21.854 2.82891 20.681 2.36966 19.1882 2.36966C17.6953 2.36966 16.5046 2.82891 15.6337 3.76578C14.7629 4.70266 14.3364 5.97017 14.3364 7.58675C14.3364 9.20334 14.7629 10.4893 15.616 11.3894C16.4868 12.3079 17.6775 12.7672 19.1704 12.7672C20.6633 12.7672 21.854 12.3079 22.7248 11.3894C23.5956 10.4525 24.0222 9.18497 24.0222 7.58675C24.0222 5.97017 23.5779 4.70266 22.7248 3.76578ZM15.7048 7.58675C15.7048 5.25377 16.9489 3.83926 19.1882 3.83926C21.1609 3.83926 22.4049 4.9231 22.5293 6.77849H20.4855C20.3611 5.87834 19.8991 5.43747 19.1704 5.43747C18.1929 5.43747 17.7131 6.1539 17.7131 7.58675C17.7131 9.0013 18.1929 9.71773 19.1704 9.71773C19.9168 9.71773 20.3611 9.2768 20.4855 8.39508H22.5293C22.4049 10.2504 21.1964 11.3342 19.1882 11.3342C16.9489 11.3159 15.7048 9.9014 15.7048 7.58675Z" fill="#FF748D"/>
<path d="M28.932 1.09002H33.8623C37.474 1.09002 39.2894 2.68602 39.2894 5.85902C39.2894 9.03202 37.474 10.628 33.8623 10.647H31.8176V14.2H28.932V1.09002ZM31.8176 8.48102H33.633C35.4293 8.48102 36.3275 7.60702 36.3275 5.87802C36.3275 4.11102 35.4293 3.23702 33.633 3.23702H31.8176V8.48102ZM43.1256 14.2H40.412V0.52002H43.1256V14.2ZM48.986 4.33902C51.948 4.33902 53.4194 5.57402 53.4194 8.04402V14.2H51.3173V13.44L51.5275 12.528H51.26C50.5912 13.763 49.4064 14.39 47.6674 14.39C45.5271 14.39 44.3232 13.364 44.3232 11.711C44.3232 10.02 45.3934 9.05102 47.9349 8.74702L50.7249 8.42402V7.93002C50.7249 6.77102 50.1325 6.18202 48.9286 6.18202C47.763 6.18202 47.1706 6.73302 47.1514 7.83502H44.5143C44.5334 5.57402 46.1578 4.33902 48.986 4.33902ZM48.3936 12.566C49.7504 12.566 50.7249 11.73 50.7249 10.495V9.98202L48.47 10.229C47.4954 10.362 46.9986 10.761 46.9986 11.426C46.9986 12.186 47.4572 12.566 48.3936 12.566ZM60.4253 4.33902C62.6229 4.33902 63.8458 5.53602 63.8458 7.64502V14.2H61.1515V8.21502C61.1515 7.03702 60.6164 6.44802 59.5271 6.44802C58.285 6.44802 57.4824 7.22702 57.4824 8.57602V14.2H54.788V4.54802H56.9091V5.28902L56.718 6.18202H56.9473C57.4824 5.11802 58.6672 4.33902 60.4253 4.33902ZM70.8813 4.33902C73.0789 4.33902 74.3019 5.53602 74.3019 7.64502V14.2H71.6075V8.21502C71.6075 7.03702 71.0724 6.44802 69.9831 6.44802C68.741 6.44802 67.9384 7.22702 67.9384 8.57602V14.2H65.244V4.54802H67.3651V5.28902L67.174 6.18202H67.4034C67.9384 5.11802 69.1232 4.33902 70.8813 4.33902ZM84.7765 9.22202V9.81102H78.2028C78.2793 11.559 78.9672 12.433 80.2666 12.433C81.2986 12.433 81.9292 11.977 82.1585 11.046H84.7383C84.4325 13.098 82.8082 14.39 80.1329 14.39C77.0945 14.39 75.4319 12.604 75.4319 9.43102C75.4319 6.23902 77.2473 4.33902 80.2858 4.33902C83.2095 4.33902 84.7765 6.04902 84.7765 9.22202ZM80.2093 6.18202C79.101 6.18202 78.4512 6.86602 78.2601 8.25302H82.1012C81.9292 6.86602 81.2986 6.18202 80.2093 6.18202ZM91.0712 4.33902C91.5872 4.33902 92.0267 4.41502 92.3707 4.56702V7.07502C91.9311 6.94202 91.4916 6.86602 91.0903 6.86602C89.5616 6.86602 88.6443 7.89202 88.6443 9.58302V14.2H85.9499V4.54802H88.071V5.27002L87.8608 6.44802H88.1092C88.4914 5.21302 89.5424 4.33902 91.0712 4.33902Z" fill="#333333"/>
</svg>
